#N canvas 426 313 743 374 10;
#N canvas -8 2 1916 964 music 0;
#X obj 1534 135 soundfiler;
#X obj 118 1109 dac~ 1 2;
#X obj 1534 52 openpanel;
#X obj 1534 32 bng 15 250 50 0 empty open empty 17 7 0 10 -262144 -1
-1;
#X obj 1543 92 loadbang;
#X obj 117 1217 writesf~ 2;
#X msg 134 1170 start;
#X msg 135 1194 stop;
#X msg 117 1146 open audiotest.wav;
#X obj 1446 93 splitfilename;
#X msg 1424 141 label \$1;
#N canvas 0 22 450 300 (subpatch) 0;
#X array audioL 810000 float 0;
#X coords 0 1 809999 -1 100 60 1 0 0;
#X restore 1627 276 graph;
#N canvas -263 0 1258 454 conv_int 0;
#X obj 285 179 f \$0;
#X obj 304 113 f \$0;
#X obj 65 92 loadbang;
#X obj 38 94 bng 15 250 50 0 empty empty empty 17 7 0 10 -262144 -1
-1;
#X obj 65 224 s \$0-lb4;
#X obj 65 113 t b b b b;
#X obj 155 164 s \$0-lb1;
#X obj 125 184 s \$0-lb2;
#X obj 95 204 s \$0-lb3;
#X obj 265 61 r \$0-lb2;
#X obj 265 274 f \$0;
#X obj 265 82 t b b b;
#X msg 304 133 \; \$1-25-band-eq const 1 \;;
#X text 341 112 EQ;
#X text 325 177 dry/wet master;
#N canvas -8 2 1916 964 25-band-EQ 0;
#X obj 345 17 bng 15 250 50 0 empty empty unity 17 7 0 12 -262144 -1
-1;
#X obj 275 17 bng 15 250 50 0 empty empty mute 17 7 0 12 -262144 -1
-1;
#N canvas 0 22 450 278 (subpatch) 0;
#X array \$0-25-band-eq 25 float 2;
#X coords 0 1.25 25 0 355 64 1 0 0;
#X restore 42 54 graph;
#X text 39 268 Note that scalar values below 0 are clipped to 0 \,
but there is no upper limit for scalars., f 67;
#X obj 205 17 bng 15 250 50 0 \$0-send-eq-list empty apply 17 7 0 12
-262144 -1 -1;
#N canvas 548 198 650 289 mute-or-unity 0;
#X obj 259 40 inlet;
#X obj 49 40 inlet;
#X obj 49 90 f \$0;
#X obj 259 180 f \$0;
#X msg 49 110 \; \$1-25-band-eq const 0 \;;
#X msg 259 200 \; \$1-25-band-eq const 1 \;;
#X obj 331 40 r \$0-convolve;
#X obj 331 61 route analyze;
#X obj 331 82 t b;
#X text 330 126 With each new analysis \, [convolve~]'s internal EQ
is reset to unity. Reset the EQ table here as a reminder of that.,
f 41;
#X connect 0 0 3 0;
#X connect 1 0 2 0;
#X connect 2 0 4 0;
#X connect 3 0 5 0;
#X connect 6 0 7 0;
#X connect 7 0 8 0;
#X connect 8 0 3 0;
#X restore 279 159 pd mute-or-unity;
#N canvas 756 370 594 270 send-eq-message-from-array 0;
#X obj 29 159 list prepend eq;
#X obj 29 180 list trim;
#X obj 29 201 s \$0-convolve;
#X obj 29 62 r \$0-send-eq-list;
#X obj 29 108 array get \$0-25-band-eq;
#X text 218 95 Here \, we dump the scalar values out of the table and
send them to [convolve~] as an "eq" message. Since working in linear
frequency bins isn't very intuitive \, [convolve~] uses the Bark frequency
scale to define 25 frequency bands from DC to Nyquist., f 46;
#X connect 0 0 1 0;
#X connect 1 0 2 0;
#X connect 3 0 4 0;
#X connect 4 0 0 0;
#X restore 41 159 pd send-eq-message-from-array;
#X text 39 189 As of version 0.11 \, you can scale the complex frequency-domain
values of the IR analysis via an "eq" message. This allows you to boost
or attenuate energy in any of 25 Bark-based frequency bands. The "eq"
method expects a list of 25 scalar values. Here \, the values are dumped
into a list using [array get]., f 67;
#X connect 0 0 5 1;
#X connect 1 0 5 0;
#X coords 0 -1 1 1 380 120 1 30 10;
#X restore 574 56 pd 25-band-EQ;
#X msg 284 199 \; \$1-dry-volume-set 0 \; \$1-wet-volume-set 100 \;
\$1-master-volume-set 75 \;;
#X obj 436 334 f \$0;
#X obj 265 334 f \$0;
#X msg 436 364 \; \$1-dry-volume-set 100 \; \$1-wet-volume-set 0 \;
;
#X msg 265 364 \; \$1-dry-volume-set 0 \; \$1-wet-volume-set 100 \;
;
#X obj 436 307 r dry;
#X obj 265 306 r wet;
#X text 1028 52 initialization patch of the convolve_tilde object,
f 31;
#X connect 0 0 16 0;
#X connect 1 0 12 0;
#X connect 2 0 5 0;
#X connect 3 0 5 0;
#X connect 5 0 4 0;
#X connect 5 1 8 0;
#X connect 5 2 7 0;
#X connect 5 3 6 0;
#X connect 9 0 11 0;
#X connect 10 0 20 0;
#X connect 11 0 10 0;
#X connect 11 1 0 0;
#X connect 11 2 1 0;
#X connect 17 0 19 0;
#X connect 18 0 20 0;
#X connect 21 0 17 0;
#X connect 22 0 18 0;
#X restore 889 90 pd conv_int;
#X floatatom 286 160 5 0 0 0 - #0-master-volume -;
#X obj 137 160 hsl 140 15 0 100 0 0 \$0-master-volume \$0-master-volume-set
master-volume 8 8 0 12 -261234 -1 -1 12425 1;
#X obj 135 46 cnv 15 150 25 empty filename voice.wav 20 12 1 12 -261234
-1 0;
#X obj 1424 166 s filename;
#X obj 115 51 bng 15 250 50 0 open empty empty 17 7 0 10 -191407 -1
-1;
#N canvas -9 -9 1920 1026 mix-dry-and-wet 0;
#X obj 46 24 inlet~;
#X obj 46 364 outlet~;
#X obj 46 289 *~;
#X obj 346 247 dbtorms;
#X obj 346 289 line~;
#X obj 346 268 pack f 40;
#X obj 46 159 *~;
#X obj 96 117 dbtorms;
#X obj 96 159 line~;
#X obj 96 138 pack f 40;
#X obj 46 230 +~;
#X obj 236 24 inlet~;
#X obj 236 159 *~;
#X obj 286 117 dbtorms;
#X obj 286 159 line~;
#X obj 286 138 pack f 40;
#X obj 96 96 r \$0-dry-volume;
#X obj 286 96 r \$0-wet-volume;
#X obj 346 226 r \$0-master-volume;
#X connect 0 0 6 0;
#X connect 2 0 1 0;
#X connect 3 0 5 0;
#X connect 4 0 2 1;
#X connect 5 0 4 0;
#X connect 6 0 10 0;
#X connect 7 0 9 0;
#X connect 8 0 6 1;
#X connect 9 0 8 0;
#X connect 10 0 2 0;
#X connect 11 0 12 0;
#X connect 12 0 10 1;
#X connect 13 0 15 0;
#X connect 14 0 12 1;
#X connect 15 0 14 0;
#X connect 16 0 7 0;
#X connect 17 0 13 0;
#X connect 18 0 3 0;
#X restore 94 1038 pd mix-dry-and-wet;
#N canvas -2409 -9 2400 1246 mix-dry-and-wet 0;
#X obj 46 24 inlet~;
#X obj 46 364 outlet~;
#X obj 46 289 *~;
#X obj 346 247 dbtorms;
#X obj 346 289 line~;
#X obj 346 268 pack f 40;
#X obj 46 159 *~;
#X obj 96 117 dbtorms;
#X obj 96 159 line~;
#X obj 96 138 pack f 40;
#X obj 46 230 +~;
#X obj 236 24 inlet~;
#X obj 236 159 *~;
#X obj 286 117 dbtorms;
#X obj 286 159 line~;
#X obj 286 138 pack f 40;
#X obj 96 96 r \$0-dry-volume;
#X obj 286 96 r \$0-wet-volume;
#X obj 346 226 r \$0-master-volume;
#X connect 0 0 6 0;
#X connect 2 0 1 0;
#X connect 3 0 5 0;
#X connect 4 0 2 1;
#X connect 5 0 4 0;
#X connect 6 0 10 0;
#X connect 7 0 9 0;
#X connect 8 0 6 1;
#X connect 9 0 8 0;
#X connect 10 0 2 0;
#X connect 11 0 12 0;
#X connect 12 0 10 1;
#X connect 13 0 15 0;
#X connect 14 0 12 1;
#X connect 15 0 14 0;
#X connect 16 0 7 0;
#X connect 17 0 13 0;
#X connect 18 0 3 0;
#X restore 312 1042 pd mix-dry-and-wet;
#X obj 1227 30 bng 15 250 50 0 empty dsp_on empty 17 7 0 10 -262144
-1 -1;
#X obj 1227 73 +;
#X msg 1227 51 1;
#X obj 1257 73 int;
#X floatatom 1262 116 5 0 0 0 - - -;
#X obj 1227 95 mod 2;
#X obj 1227 143 route 0 1;
#X obj 46 51 bng 15 250 50 0 dsp_on dsp_bang dsp 20 7 0 10 -66577 -1
-1;
#X obj 431 93 bng 15 50 30 0 head_tracker_on empty empty 17 7 1 10
-262144 -1 -1;
#X obj 476 93 bng 15 50 30 0 head_tracker_off empty empty 17 7 1 10
-262144 -1 -1;
#X obj 142 82 bng 15 250 50 0 play_sound empty empty 17 7 0 10 -262144
-1 -1;
#X obj 158 82 bng 15 250 50 0 play_sound empty empty 17 7 0 10 -262144
-1 -1;
#X obj 192 82 bng 15 250 50 0 stop_sound empty empty 17 7 0 10 -262144
-1 -1;
#X obj 202 81 bng 15 250 50 0 stop_sound empty empty 17 7 0 10 -262144
-1 -1;
#X msg 1227 169 \; pd dsp 0 \; dsp_bang color 60 \;;
#X msg 1253 223 \; pd dsp 1 \; dsp_bang color 2 \;;
#X text 1222 6 dsp control;
#X text 1533 5 soundfile;
#N canvas 165 89 1708 731 canvas_mod 0;
#X obj 98 96 del 100;
#X obj 58 64 r head_tracker_on;
#X msg 58 168 \; c1 color \$1;
#X msg 58 139 12;
#X msg 104 138 10;
#X obj 218 97 del 100;
#X msg 178 142 12;
#X msg 224 139 10;
#X obj 178 65 r head_tracker_off;
#X msg 178 169 \; c2 color \$1;
#X obj 356 94 del 100;
#X msg 316 137 12;
#X msg 362 136 10;
#X obj 476 95 del 100;
#X msg 436 140 12;
#X msg 482 137 10;
#X obj 316 62 r play_sound;
#X msg 314 166 \; c3 color \$1;
#X msg 436 167 \; c4 color \$1;
#X obj 436 63 r stop_sound;
#X obj 573 64 r resume_sound;
#X obj 619 92 del 100;
#X msg 573 139 12;
#X msg 619 136 10;
#X msg 573 166 \; c5 color \$1;
#X text 789 63 change color of canvas object when clicking on them
, f 18;
#X obj 60 221 r stereo;
#X msg 59 338 \; c6 color \$1;
#X msg 60 310 10;
#X msg 210 314 10;
#X msg 209 343 \; c7 color \$1;
#X msg 107 305 -1.31586e+007;
#X msg 259 308 -1.31586e+007;
#X obj 427 233 r deg_0;
#X obj 588 235 r deg_30;
#X msg 427 335 \; c8 color \$1;
#X msg 553 334 \; c9 color \$1;
#X msg 155 505 \; cHT2 color \$1;
#X msg 389 507 \; cHT3 color \$1;
#X msg 591 508 \; cHT1 color \$1;
#X msg 54 621 -1.31586e+007;
#X msg 148 657 \; c_dry color \$1;
#X msg 148 620 -6.60755e+006;
#X msg 263 617 -1.31586e+007;
#X msg 357 616 -6.60755e+006;
#X msg 357 653 \; c_wet color \$1;
#X obj 54 597 r wet;
#X obj 148 597 r dry;
#X obj 263 593 r dry;
#X obj 357 593 r wet;
#X obj 746 235 r deg_0_mono;
#X msg 711 332 \; c11 color \$1;
#X obj 61 405 r HT_manu;
#X obj 266 405 r HT_sensor;
#X obj 497 406 r HT_auto;
#X msg 61 467 -6.60755e+006;
#X msg 266 469 -6.60755e+006;
#X msg 497 470 -6.60755e+006;
#X msg 591 471 -1.31586e+007;
#X msg 389 470 -1.31586e+007;
#X msg 155 468 -1.31586e+007;
#X obj 591 413 r ResetHT;
#X obj 60 256 route 1 0;
#X obj 210 263 route 0 1;
#X msg 427 304 -6.60755e+006;
#X msg 588 303 -6.60755e+006;
#X msg 745 300 -6.60755e+006;
#X msg 392 286 -1.31586e+007;
#X msg 551 282 -1.31586e+007;
#X msg 711 281 -1.31586e+007;
#X connect 0 0 4 0;
#X connect 1 0 3 0;
#X connect 1 0 0 0;
#X connect 3 0 2 0;
#X connect 4 0 2 0;
#X connect 5 0 7 0;
#X connect 6 0 9 0;
#X connect 7 0 9 0;
#X connect 8 0 6 0;
#X connect 8 0 5 0;
#X connect 10 0 12 0;
#X connect 11 0 17 0;
#X connect 12 0 17 0;
#X connect 13 0 15 0;
#X connect 14 0 18 0;
#X connect 15 0 18 0;
#X connect 16 0 11 0;
#X connect 16 0 10 0;
#X connect 19 0 14 0;
#X connect 19 0 13 0;
#X connect 20 0 22 0;
#X connect 20 0 21 0;
#X connect 21 0 23 0;
#X connect 22 0 24 0;
#X connect 23 0 24 0;
#X connect 26 0 62 0;
#X connect 26 0 63 0;
#X connect 28 0 27 0;
#X connect 29 0 30 0;
#X connect 31 0 27 0;
#X connect 32 0 30 0;
#X connect 33 0 64 0;
#X connect 33 0 68 0;
#X connect 33 0 69 0;
#X connect 34 0 65 0;
#X connect 34 0 67 0;
#X connect 34 0 69 0;
#X connect 40 0 41 0;
#X connect 42 0 41 0;
#X connect 43 0 45 0;
#X connect 44 0 45 0;
#X connect 46 0 40 0;
#X connect 47 0 42 0;
#X connect 48 0 43 0;
#X connect 49 0 44 0;
#X connect 50 0 67 0;
#X connect 50 0 68 0;
#X connect 50 0 66 0;
#X connect 52 0 55 0;
#X connect 52 0 59 0;
#X connect 52 0 58 0;
#X connect 53 0 56 0;
#X connect 53 0 60 0;
#X connect 53 0 58 0;
#X connect 54 0 59 0;
#X connect 54 0 60 0;
#X connect 54 0 57 0;
#X connect 55 0 37 0;
#X connect 56 0 38 0;
#X connect 57 0 39 0;
#X connect 58 0 39 0;
#X connect 59 0 38 0;
#X connect 60 0 37 0;
#X connect 61 0 58 0;
#X connect 61 0 59 0;
#X connect 61 0 60 0;
#X connect 62 0 28 0;
#X connect 62 1 31 0;
#X connect 63 0 29 0;
#X connect 63 1 32 0;
#X connect 64 0 35 0;
#X connect 65 0 36 0;
#X connect 66 0 51 0;
#X connect 67 0 35 0;
#X connect 68 0 36 0;
#X connect 69 0 51 0;
#X restore 889 111 pd canvas_mod;
#X msg 1498 707 bang;
#X obj 1598 829 delay 10000;
#X obj 1416 852 delay 20000;
#X obj 1498 917 line 45 1;
#X obj 1498 954 - 180;
#X floatatom 699 55 5 0 0 1 deg deg -;
#X msg 1598 757 stop;
#X obj 1598 736 r head_tracker_off;
#X obj 390 794 +~;
#X obj 501 796 +~;
#X obj 94 901 +~;
#X obj 417 900 +~;
#X obj 206 796 +~;
#X obj 1207 618 r head_tracker_on;
#X msg 1207 711 bang;
#X obj 1307 823 delay 10000;
#X obj 1124 850 delay 20000;
#X obj 1207 929 line 45 1;
#X obj 1207 966 - 180;
#X msg 1307 755 stop;
#X obj 1307 734 r head_tracker_off;
#X obj 1169 145 loadbang;
#X text 1812 1130 convention: clockwise;
#X text 1580 1153 be carefull that earplug use the counterclockwise
convantion;
#X msg 1898 681 3.3533;
#X floatatom 1898 702 5 0 0 0 alpha_+_30_R - -;
#X msg 1897 731 1.64081;
#X floatatom 1897 752 5 0 0 0 alpha_+_30_L - -;
#X obj 405 685 *~;
#X obj 221 681 *~;
#X text 134 284 DRR;
#X floatatom 166 283 5 0 0 1 dB DRR_init DRR;
#X text 30 365 shift key for float;
#N canvas -9 -9 1920 976 DRR 0;
#X msg 1233 110 0.9192;
#X floatatom 1233 131 5 0 0 0 E_HRTF_0 - E_HRTF_0;
#X msg 807 101 1;
#X msg 821 122 0;
#X msg 777 200 0;
#X obj 832 175 + 1;
#X floatatom 822 221 5 0 0 0 - - -;
#X floatatom 697 289 5 0 0 0 - - -;
#X obj 697 309 pow 2;
#X obj 697 330 f;
#X obj 697 353 +;
#X obj 649 345 bng 15 250 50 0 empty empty empty 17 7 0 10 -262144
-1 -1;
#X msg 649 365 0;
#X floatatom 975 216 5 0 0 0 - - -;
#X msg 975 170 symbol R0L;
#X obj 975 195 expr size("$s1");
#X obj 822 244 expr if($f1 >= $f2 \, 0 \, -1);
#X obj 821 273 sel 0;
#X obj 807 175 i;
#X obj 1233 72 loadbang;
#X floatatom 821 421 5 0 0 2 DRR DRR -;
#X obj 872 535 / 20;
#X obj 841 552 pow;
#X floatatom 785 634 5 0 0 0 alpha_L - alpha_L;
#X msg 840 508 10;
#X obj 785 613 /;
#X floatatom 841 573 5 0 0 0 - - -;
#X floatatom 840 529 5 0 0 0 - - -;
#X obj 821 441 t b b f;
#X floatatom 785 503 5 0 0 0 E_HRTF_0 E_HRTF_0 -;
#X floatatom 785 484 5 0 0 0 E_BRIR_L E_BRIR_L -;
#X obj 785 523 /;
#X obj 785 553 pow 0.5;
#X floatatom 785 574 5 0 0 0 - - -;
#X msg 307 109 1;
#X msg 316 131 0;
#X msg 275 210 0;
#X obj 335 181 + 1;
#X floatatom 317 218 5 0 0 0 - - -;
#X floatatom 187 331 5 0 0 0 - - -;
#X obj 187 351 pow 2;
#X obj 187 372 f;
#X obj 187 393 +;
#X obj 140 370 bng 15 250 50 0 empty empty empty 17 7 0 10 -262144
-1 -1;
#X msg 140 390 0;
#X floatatom 470 225 5 0 0 0 - - -;
#X obj 470 204 expr size("$s1");
#X obj 317 251 expr if($f1 >= $f2 \, 0 \, -1);
#X obj 317 281 sel 0;
#X obj 307 181 i;
#X msg 470 179 symbol R0R;
#X floatatom 326 449 5 0 0 2 DRR DRR -;
#X obj 371 558 / 20;
#X obj 336 582 pow;
#X floatatom 268 653 5 0 0 0 alpha_R - alpha_R;
#X msg 336 538 10;
#X obj 268 632 /;
#X floatatom 336 603 5 0 0 0 - - -;
#X floatatom 336 559 5 0 0 0 - - -;
#X obj 317 469 t b b f;
#X floatatom 268 530 5 0 0 0 E_HRTF_0 E_HRTF_0 -;
#X floatatom 268 511 5 0 0 0 E_BRIR_R E_BRIR_R -;
#X obj 268 550 /;
#X obj 268 580 pow 0.5;
#X floatatom 268 601 5 0 0 0 - - -;
#X obj 187 310 tabread R0R;
#X obj 697 268 tabread R0L;
#X floatatom 697 413 0 0 0 0 E_BRIR_L - E_BRIR_L;
#X floatatom 187 424 0 0 0 0 - - -;
#X obj 807 147 metro 0.01;
#X floatatom 697 390 0 0 0 0 - - -;
#X floatatom 187 445 5 0 0 0 E_BRIR_R - E_BRIR_R;
#X obj 307 157 metro 0.01;
#X obj 807 43 r loaded_data;
#X obj 309 46 r loaded_data;
#X msg 317 414 7;
#X msg 821 359 7;
#X obj 807 67 t b b;
#X obj 307 67 t b b;
#X obj 317 369 pipe 10;
#X obj 821 305 pipe 10;
#X text 1176 294 compute the scaling factor alpha that scales the early
reflection in order to obtain the desire DRR.;
#X connect 0 0 1 0;
#X connect 2 0 69 0;
#X connect 3 0 69 0;
#X connect 4 0 18 0;
#X connect 5 0 18 1;
#X connect 6 0 16 0;
#X connect 7 0 8 0;
#X connect 8 0 9 0;
#X connect 9 0 10 0;
#X connect 10 0 70 0;
#X connect 11 0 12 0;
#X connect 12 0 70 0;
#X connect 13 0 16 1;
#X connect 14 0 15 0;
#X connect 15 0 13 0;
#X connect 16 0 17 0;
#X connect 17 0 3 0;
#X connect 17 0 4 0;
#X connect 17 0 80 0;
#X connect 18 0 6 0;
#X connect 18 0 5 0;
#X connect 18 0 66 0;
#X connect 19 0 0 0;
#X connect 20 0 28 0;
#X connect 21 0 22 1;
#X connect 22 0 25 1;
#X connect 22 0 26 0;
#X connect 24 0 27 0;
#X connect 25 0 23 0;
#X connect 27 0 22 0;
#X connect 28 0 31 0;
#X connect 28 1 24 0;
#X connect 28 2 21 0;
#X connect 29 0 31 0;
#X connect 30 0 31 1;
#X connect 31 0 32 0;
#X connect 32 0 33 0;
#X connect 33 0 25 0;
#X connect 34 0 72 0;
#X connect 35 0 72 0;
#X connect 36 0 49 0;
#X connect 37 0 49 1;
#X connect 38 0 47 0;
#X connect 39 0 40 0;
#X connect 40 0 41 0;
#X connect 41 0 42 0;
#X connect 42 0 68 0;
#X connect 43 0 44 0;
#X connect 44 0 68 0;
#X connect 45 0 47 1;
#X connect 46 0 45 0;
#X connect 47 0 48 0;
#X connect 48 0 35 0;
#X connect 48 0 36 0;
#X connect 48 0 79 0;
#X connect 49 0 38 0;
#X connect 49 0 37 0;
#X connect 49 0 65 0;
#X connect 50 0 46 0;
#X connect 51 0 59 0;
#X connect 52 0 53 1;
#X connect 53 0 56 1;
#X connect 53 0 57 0;
#X connect 55 0 58 0;
#X connect 56 0 54 0;
#X connect 58 0 53 0;
#X connect 59 0 62 0;
#X connect 59 1 55 0;
#X connect 59 2 52 0;
#X connect 60 0 62 0;
#X connect 61 0 62 1;
#X connect 62 0 63 0;
#X connect 63 0 64 0;
#X connect 64 0 56 0;
#X connect 65 0 39 0;
#X connect 66 0 7 0;
#X connect 68 0 42 1;
#X connect 68 0 71 0;
#X connect 69 0 18 0;
#X connect 70 0 10 1;
#X connect 70 0 67 0;
#X connect 72 0 49 0;
#X connect 73 0 77 0;
#X connect 74 0 78 0;
#X connect 75 0 59 0;
#X connect 76 0 28 0;
#X connect 77 0 2 0;
#X connect 77 1 14 0;
#X connect 78 0 34 0;
#X connect 78 1 50 0;
#X connect 79 0 75 0;
#X connect 80 0 76 0;
#X restore 889 153 pd DRR alpha values;
#X obj 405 663 convolve~ 64 R0L;
#X obj 221 660 convolve~ 64 R0R;
#X obj 516 686 *~;
#X obj 516 665 convolve~ 64 R0R;
#X obj 94 800 +~;
#X obj 109 685 *~;
#X obj 109 664 convolve~ 64 R0L;
#X obj 432 137 hsl 128 15 45 -45 0 0 HT_deg deg_Hslider manual -2 -8
0 10 -262144 -1 -1 6350 1;
#X floatatom 700 101 5 0 0 1 deg HT_deg -;
#N canvas 434 249 801 320 load 0;
#X obj 123 54 loadbang;
#X obj 123 182 soundfiler;
#X obj 123 160 receive receiver;
#X obj 46 83 table R30L;
#X obj 46 103 table R_30L;
#X obj 46 124 table R30R;
#X obj 46 144 table R_30R;
#X obj 45 166 table R0R;
#X obj 44 186 table R0L;
#X msg 179 208 bang;
#X obj 179 229 s loaded_data;
#X text 415 57 load default BRIRs;
#X msg 124 80 b \; receiver read -resize ./data/IR/Rev30L.wav R30L
\; receiver read -resize ./data/IR/Rev_30L.wav R_30L \; receiver read
-resize ./data/IR/Rev30R.wav R30R \; receiver read -resize ./data/IR/Rev_30R.wav
R_30R \; receiver read -resize ./data/IR/Rev0L.wav R0L \; receiver
read -resize ./data/IR/Rev0R.wav R0R \;;
#X connect 0 0 12 0;
#X connect 1 1 9 0;
#X connect 2 0 1 0;
#X connect 9 0 10 0;
#X restore 889 133 pd load data;
#X obj 767 900 * -1;
#X obj 767 925 + 360;
#X obj 735 961 + 30;
#X obj 792 961 - 30;
#X floatatom 792 1003 5 0 0 0 - - -;
#X obj 735 1024 s degL;
#X obj 792 1023 s degR;
#X obj 767 878 i;
#X obj 735 983 mod 360;
#X obj 792 983 mod 360;
#X floatatom 735 1005 5 0 0 0 - - -;
#X obj 1498 999 s degL;
#X obj 1207 1008 s degR;
#X obj 1498 977 mod 360;
#X obj 1207 987 mod 360;
#X floatatom 1459 1026 5 0 0 0 - - deg;
#X obj 1460 980 - 30;
#X obj 1896 772 7;
#X obj 1884 630 loadbang;
#X floatatom 1896 793 5 0 0 0 DDR - DRR_init;
#X obj 1460 1001 * -1;
#X text 1792 603 variable initialization;
#X text 765 769 head tracker slider;
#X obj 621 56 bng 15 250 50 0 ResetHT empty empty 17 7 0 10 -262144
-1 -1;
#X obj 639 55 bng 15 250 50 0 ResetHT empty empty 17 7 0 10 -262144
-1 -1;
#X obj 618 51 cnv 15 40 20 empty empty reset 6 10 1 12 -233017 -66577
0;
#X obj 766 613 r ResetHT;
#X msg 766 716 330;
#X msg 812 716 30;
#X obj 766 737 s degR;
#X obj 812 737 s degL;
#X obj 766 696 s head_tracker_off;
#X msg 766 634 0;
#X obj 766 653 s deg;
#X obj 766 674 s deg_Hslider;
#X obj 326 287 bng 15 250 50 0 deg_0 c8 0° 17 7 0 10 -105776 -1 -1
;
#X obj 355 287 bng 15 250 50 0 deg_30 c9 30° 17 7 0 10 -208050 -1
-1;
#X obj 522 643 r convolve4;
#X obj 411 641 r convolve3;
#X obj 226 639 r convolve2;
#X obj 115 643 r convolve1;
#X floatatom 134 687 5 0 0 3 alpha_L alpha_L -;
#X floatatom 430 686 5 0 0 3 alpha_L alpha_L -;
#X floatatom 246 682 5 0 0 3 alpha_R alpha_R -;
#X floatatom 540 687 5 0 0 3 alpha_R alpha_R -;
#X floatatom 288 476 5 0 0 0 - - stereo_BRIR;
#X obj 1884 820 1;
#X floatatom 1884 839 5 0 0 0 speaker_set - speaker_set;
#X obj 139 115 hsl 140 15 0 810000 0 0 audio_slider audio_slider_lim
empty -2 -8 0 10 -262144 -1 -1 0 1;
#X obj 1534 202 s length_sound;
#N canvas 111 226 1601 826 load 0;
#X obj 61 72 openpanel;
#X msg 61 188 read -resize \$1 BRIR_LL;
#X obj 61 209 soundfiler;
#X obj 78 334 table BRIR_LL;
#X obj 240 99 openpanel;
#X obj 240 208 soundfiler;
#X msg 240 187 read -resize \$1 BRIR_LR;
#X obj 78 356 table BRIR_LR;
#X obj 78 380 table BRIR_RL;
#X obj 77 405 table BRIR_RR;
#X obj 426 98 openpanel;
#X obj 426 202 soundfiler;
#X msg 426 183 read -resize \$1 BRIR_RL;
#X obj 617 52 openpanel;
#X obj 616 220 soundfiler;
#X msg 616 198 read -resize \$1 BRIR_RR;
#X obj 61 281 s convolve1;
#X msg 61 253 analyze BRIR_LL;
#X msg 61 231 bang;
#X msg 240 231 bang;
#X msg 240 253 analyze BRIR_LR;
#X msg 426 223 bang;
#X msg 616 251 bang;
#X obj 240 281 s convolve2;
#X obj 427 273 s convolve3;
#X msg 426 245 analyze BRIR_RL;
#X msg 616 273 analyze BRIR_RR;
#X obj 616 301 s convolve4;
#X obj 114 104 spigot 1;
#X obj 159 79 tgl 15 0 empty stereo empty 17 7 0 10 -262144 -1 -1 1
1;
#X obj 649 88 spigot 1;
#X obj 694 66 tgl 15 0 empty stereo empty 17 7 0 10 -262144 -1 -1 1
1;
#X obj 61 45 inlet;
#X obj 240 72 inlet;
#X obj 426 75 inlet;
#X obj 617 28 inlet;
#X connect 0 0 1 0;
#X connect 0 0 28 0;
#X connect 1 0 2 0;
#X connect 2 0 18 0;
#X connect 4 0 6 0;
#X connect 5 0 19 0;
#X connect 6 0 5 0;
#X connect 10 0 12 0;
#X connect 11 0 21 0;
#X connect 12 0 11 0;
#X connect 13 0 15 0;
#X connect 13 0 30 0;
#X connect 14 0 22 0;
#X connect 15 0 14 0;
#X connect 17 0 16 0;
#X connect 18 0 17 0;
#X connect 19 0 20 0;
#X connect 20 0 23 0;
#X connect 21 0 25 0;
#X connect 22 0 26 0;
#X connect 25 0 24 0;
#X connect 26 0 27 0;
#X connect 28 0 12 0;
#X connect 29 0 28 1;
#X connect 30 0 6 0;
#X connect 31 0 30 1;
#X connect 32 0 0 0;
#X connect 33 0 4 0;
#X connect 34 0 10 0;
#X connect 35 0 13 0;
#X restore 408 372 pd load new BRIR;
#X f 17;
#X obj 408 286 tgl 15 0 stereo empty empty 17 7 0 10 -262144 -1 -1
1 1;
#N canvas 699 271 446 289 compute 0;
#X obj 44 23 r length_sound;
#X obj 44 45 / 44100;
#X obj 59 106 mod 60;
#X obj 44 67 i;
#X obj 44 203 +;
#X obj 69 129 / 100;
#X obj 44 157 -;
#X obj 44 179 / 60;
#X obj 44 225 outlet;
#X obj 172 47 / 44100;
#X obj 172 24 r audio_slider;
#X obj 187 108 mod 60;
#X obj 172 69 i;
#X obj 172 205 +;
#X obj 197 131 / 100;
#X obj 172 159 -;
#X obj 172 181 / 60;
#X obj 172 227 outlet;
#X text 43 2 song;
#X text 170 2 slider;
#X text 295 26 control the slider that enables to scroll through the
song, f 21;
#X connect 0 0 1 0;
#X connect 1 0 3 0;
#X connect 2 0 5 0;
#X connect 2 0 6 1;
#X connect 3 0 2 0;
#X connect 3 0 6 0;
#X connect 4 0 8 0;
#X connect 5 0 4 1;
#X connect 6 0 7 0;
#X connect 7 0 4 0;
#X connect 9 0 12 0;
#X connect 10 0 9 0;
#X connect 11 0 14 0;
#X connect 11 0 15 1;
#X connect 12 0 11 0;
#X connect 12 0 15 0;
#X connect 13 0 17 0;
#X connect 14 0 13 1;
#X connect 15 0 16 0;
#X connect 16 0 13 0;
#X restore 889 45 pd compute time;
#X obj 191 93 bng 15 250 50 0 stop_sound empty empty 17 7 0 10 -262144
-1 -1;
#X obj 203 93 bng 15 250 50 0 stop_sound empty empty 17 7 0 10 -262144
-1 -1;
#X obj 141 92 bng 15 250 50 0 play_sound empty empty 17 7 0 10 -262144
-1 -1;
#X obj 158 92 bng 15 250 50 0 play_sound empty empty 17 7 0 10 -262144
-1 -1;
#X obj 137 78 cnv 15 40 30 empty c3 play 8 12 1 12 -233017 -66577 0
;
#X obj 184 78 cnv 15 40 30 empty c4 pause 3 12 0 12 -233017 -66577
0;
#X floatatom 334 51 5 0 0 1 min.sec - -;
#X floatatom 288 115 5 0 0 1 min.sec - -;
#X floatatom 288 50 5 0 0 0 - timer -;
#X obj 238 80 bng 15 250 50 0 resume_sound empty empty 17 7 0 10 -262144
-1 -1;
#X obj 255 80 bng 15 250 50 0 resume_sound empty empty 17 7 0 10 -262144
-1 -1;
#X obj 236 90 bng 15 250 50 0 resume_sound empty empty 17 7 0 10 -262144
-1 -1;
#X obj 263 87 bng 15 250 50 0 resume_sound empty empty 17 7 0 10 -262144
-1 -1;
#X obj 250 90 bng 15 250 50 0 resume_sound empty empty 17 7 0 10 -262144
-1 -1;
#X obj 232 78 cnv 15 50 30 empty c5 resume 4 12 0 12 -233017 -66577
0;
#X text 320 50 /;
#N canvas 482 126 1182 707 player 0;
#X msg 357 91 stop;
#X msg 371 282 bang;
#X obj 356 447 env~;
#X floatatom 356 468 5 0 0 1 dB - -;
#X obj 254 67 r play_sound;
#X obj 357 67 r stop_sound;
#X msg 62 195 range \$1 \$2;
#X obj 62 165 pack 0 127, f 11;
#X floatatom 104 92 10 0 0 0 - - -;
#X obj 104 136 t b f;
#X obj 104 67 r length_sound;
#X obj 28 284 pack 0 441000;
#X obj 253 162 metro 0.0227;
#X obj 253 229 f;
#X obj 293 229 + 1;
#X floatatom 253 257 10 0 0 0 - - -;
#X obj 253 204 r audio_slider;
#X msg 253 127 0;
#X msg 429 287 stop;
#X obj 402 261 t b b;
#X obj 183 284 / 44100;
#X obj 198 345 mod 60;
#X obj 183 306 i;
#X obj 183 442 +;
#X obj 208 368 / 100;
#X obj 183 396 -;
#X obj 183 418 / 60;
#X obj 253 280 pack \$1 \$2;
#X msg 441 91 bang;
#X obj 441 67 r resume_sound;
#X obj 254 89 t b b;
#X floatatom 183 464 5 0 0 0 current_time - timer;
#X obj 28 257 r audio_slider;
#X obj 62 217 s audio_slider_lim;
#X text 47 110 length of soundfile;
#X text 68 234 set slider limits;
#X text 102 41 slider;
#X text 251 41 play sound;
#X text 354 42 stop sound;
#X text 439 42 resume sound;
#X text 589 65 music player control buttons;
#X obj 357 401 tabplay~ audioL;
#X obj 470 402 tabplay~ audioR;
#X obj 472 448 env~;
#X floatatom 472 469 5 0 0 1 dB - -;
#X obj 471 372 spigot;
#X obj 504 343 tgl 15 0 empty nb_channels empty 17 7 0 10 -262144 -1
-1 0 1;
#X obj 357 425 s~ audioL;
#X obj 471 426 s~ audioR;
#X connect 0 0 12 0;
#X connect 0 0 41 0;
#X connect 0 0 45 0;
#X connect 1 0 12 0;
#X connect 1 0 41 0;
#X connect 1 0 45 0;
#X connect 2 0 3 0;
#X connect 4 0 30 0;
#X connect 5 0 0 0;
#X connect 6 0 33 0;
#X connect 7 0 6 0;
#X connect 8 0 11 1;
#X connect 9 0 7 0;
#X connect 9 1 7 1;
#X connect 10 0 9 0;
#X connect 10 0 8 0;
#X connect 10 0 27 1;
#X connect 11 0 41 0;
#X connect 11 0 45 0;
#X connect 12 0 13 0;
#X connect 13 0 14 0;
#X connect 13 0 15 0;
#X connect 14 0 13 1;
#X connect 15 0 20 0;
#X connect 15 0 27 0;
#X connect 16 0 13 0;
#X connect 16 0 12 0;
#X connect 17 0 12 0;
#X connect 17 0 13 0;
#X connect 18 0 12 0;
#X connect 18 0 17 0;
#X connect 19 0 1 0;
#X connect 19 1 18 0;
#X connect 20 0 22 0;
#X connect 21 0 24 0;
#X connect 21 0 25 1;
#X connect 22 0 21 0;
#X connect 22 0 25 0;
#X connect 23 0 31 0;
#X connect 24 0 23 1;
#X connect 25 0 26 0;
#X connect 26 0 23 0;
#X connect 27 0 41 0;
#X connect 27 0 45 0;
#X connect 28 0 12 0;
#X connect 29 0 28 0;
#X connect 30 0 12 0;
#X connect 30 1 17 0;
#X connect 32 0 11 0;
#X connect 41 0 2 0;
#X connect 41 0 47 0;
#X connect 41 1 19 0;
#X connect 42 0 43 0;
#X connect 42 0 48 0;
#X connect 43 0 44 0;
#X connect 45 0 42 0;
#X connect 46 0 45 1;
#X restore 889 65 pd player;
#X obj 414 41 cnv 15 2 190 empty empty empty 20 12 0 14 -228856 -66577
0;
#X obj 429 46 cnv 15 100 25 empty empty empty 20 12 0 14 -261234 -66577
0;
#X text 428 72 auto;
#X obj 466 93 bng 15 50 30 0 head_tracker_off empty empty 17 7 1 10
-262144 -1 -1;
#X obj 476 103 bng 15 50 30 0 head_tracker_off empty empty 17 7 1 10
-262144 -1 -1;
#X obj 467 103 bng 15 50 30 0 head_tracker_off empty empty 17 7 1 10
-262144 -1 -1;
#X obj 465 91 cnv 15 30 30 empty c2 off 6 12 1 12 -233017 -66577 0
;
#X obj 442 93 bng 15 50 30 0 head_tracker_on empty empty 17 7 1 10
-262144 -1 -1;
#X obj 431 103 bng 15 50 30 0 head_tracker_on empty empty 17 7 1 10
-262144 -1 -1;
#X obj 441 105 bng 15 50 30 0 head_tracker_on empty empty 17 7 1 10
-262144 -1 -1;
#X obj 428 91 cnv 15 30 30 empty c1 on 8 12 1 12 -233017 -66577 0;
#X obj 126 229 cnv 15 500 2 empty empty empty 20 12 0 14 -228856 -66577
0;
#X text 280 243 default BRIRs;
#X text 405 242 custom BRIRs;
#X msg 288 441 2;
#X msg 329 440 1;
#X obj 431 283 cnv 15 60 20 empty c6 stereo 10 10 1 12 -233017 -1 0
;
#X obj 494 283 cnv 15 60 20 empty c7 mono 10 10 1 12 -208050 -1 0;
#X obj 408 324 bng 15 250 50 0 empty empty LL 17 7 0 10 -228856 -1
-1;
#X obj 440 324 bng 15 250 50 0 empty empty LR 17 7 0 10 -228856 -1
-1;
#X obj 473 324 bng 15 250 50 0 empty empty RL 17 7 0 10 -228856 -1
-1;
#X obj 506 324 bng 15 250 50 0 empty empty RR 17 7 0 10 -228856 -1
-1;
#X obj 135 241 cnv 15 105 25 empty empty empty 20 12 0 14 -261234 -66577
0;
#X text 143 245 spatialization;
#X msg 1424 119 symbol voice.wav;
#X obj 700 121 * -1;
#X floatatom 568 137 5 0 0 1 deg - -;
#X obj 699 75 * -1;
#X floatatom 505 97 5 0 0 1 deg - -;
#N canvas -8 -8 1920 997 resize 0;
#X msg 143 275 1;
#X msg 159 299 0;
#X msg 80 403 0;
#X floatatom 67 544 5 0 0 0 - - -;
#X obj 143 396 f;
#X obj 204 397 + 1;
#X floatatom 160 424 5 0 0 0 - - -;
#X obj 143 323 metro 1;
#X floatatom 220 543 5 0 0 0 - - -;
#X text 77 600 doesn't work. 2 endries shift;
#X obj 160 452 sel 1028;
#X obj 53 518 tabread R0L;
#X obj 206 518 tabread R0R;
#X obj 53 573 tabwrite R0L_short;
#X obj 205 572 tabwrite R0R_short;
#X obj 1064 421 table R0R_short;
#X obj 162 738 pipe 10;
#X msg 162 824 analyze R0L_short;
#X msg 162 759 analyze R0R_short;
#X obj 181 803 s convolve1;
#X obj 181 782 s convolve3;
#X obj 179 868 s convolve2;
#X obj 179 847 s convolve4;
#X obj 1064 398 table R0L_short;
#X obj 309 412 s R0L_short;
#X obj 311 391 s R0R_short;
#X floatatom 234 97 5 0 0 0 - ir_resize -;
#X msg 311 370 resize \$1;
#X obj 171 247 t b f f b;
#X obj 222 268 s deg_0;
#X floatatom 171 97 5 0 0 0 - speaker_set -;
#X obj 171 122 pack 1 1028;
#X msg 542 275 1;
#X msg 558 299 0;
#X msg 479 403 0;
#X floatatom 414 544 5 0 0 0 - - -;
#X obj 542 396 f;
#X obj 603 397 + 1;
#X floatatom 559 424 5 0 0 0 - - -;
#X obj 542 323 metro 1;
#X floatatom 619 543 5 0 0 0 - - -;
#X obj 559 452 sel 1028;
#X obj 559 731 pipe 10;
#X msg 710 370 resize \$1;
#X obj 570 247 t b f f b;
#X obj 172 184 route 2 1;
#X obj 707 422 s R30R_short;
#X obj 710 442 s R30L_short;
#X obj 712 472 s R_30R_short;
#X obj 713 504 s R_30L_short;
#X obj 1062 446 table R30L_short;
#X obj 1061 468 table R_30L_short;
#X obj 1061 491 table R30R_short;
#X obj 1061 513 table R_30R_short;
#X obj 400 518 tabread R30L;
#X obj 400 572 tabwrite R30L_short;
#X floatatom 417 640 5 0 0 0 - - -;
#X obj 403 614 tabread R_30L;
#X floatatom 623 642 5 0 0 0 - - -;
#X obj 605 518 tabread R30R;
#X obj 604 572 tabwrite R30R_short;
#X obj 609 617 tabread R_30R;
#X msg 559 886 analyze R30R_short;
#X obj 559 907 s convolve4;
#X msg 559 845 analyze R30L_short;
#X obj 559 866 s convolve3;
#X msg 558 801 analyze R_30R_short;
#X msg 557 759 analyze R_30L_short;
#X obj 557 780 s convolve1;
#X obj 208 142 tgl 15 0 empty empty empty 0 -6 0 8 -262144 -1 -1 0
1;
#X obj 172 162 spigot;
#X obj 73 46 bng 15 250 50 0 empty load_size empty 17 7 0 10 -262144
-1 -1;
#X obj 76 139 del 10;
#X obj 73 66 t b b b;
#X msg 92 88 bang;
#X obj 403 668 tabwrite R_30L_short;
#X obj 609 670 tabwrite R_30R_short;
#X obj 558 822 s convolve2;
#X obj 621 268 s deg_30;
#X obj 532 701 t b b;
#X obj 440 849 del 500;
#X msg 335 900 \; c10 color \$1;
#X msg 336 871 -9.23918e+006;
#X msg 440 874 0;
#X obj 164 704 t b b;
#X text 733 34 reduce the length of the BRIR;
#X connect 0 0 7 0;
#X connect 1 0 7 0;
#X connect 2 0 4 0;
#X connect 4 0 5 0;
#X connect 4 0 6 0;
#X connect 4 0 11 0;
#X connect 4 0 12 0;
#X connect 4 0 13 1;
#X connect 4 0 14 1;
#X connect 5 0 4 1;
#X connect 6 0 10 0;
#X connect 7 0 4 0;
#X connect 10 0 1 0;
#X connect 10 0 2 0;
#X connect 10 0 84 0;
#X connect 11 0 3 0;
#X connect 11 0 13 0;
#X connect 12 0 8 0;
#X connect 12 0 14 0;
#X connect 16 0 17 0;
#X connect 16 0 18 0;
#X connect 17 0 22 0;
#X connect 17 0 21 0;
#X connect 18 0 20 0;
#X connect 18 0 19 0;
#X connect 26 0 31 1;
#X connect 27 0 24 0;
#X connect 27 0 25 0;
#X connect 28 0 0 0;
#X connect 28 1 27 0;
#X connect 28 2 10 1;
#X connect 28 3 29 0;
#X connect 30 0 31 0;
#X connect 31 0 70 0;
#X connect 32 0 39 0;
#X connect 33 0 39 0;
#X connect 34 0 36 0;
#X connect 36 0 37 0;
#X connect 36 0 38 0;
#X connect 36 0 54 0;
#X connect 36 0 55 1;
#X connect 36 0 57 0;
#X connect 36 0 59 0;
#X connect 36 0 60 1;
#X connect 36 0 61 0;
#X connect 36 0 75 1;
#X connect 36 0 76 1;
#X connect 37 0 36 1;
#X connect 38 0 41 0;
#X connect 39 0 36 0;
#X connect 41 0 33 0;
#X connect 41 0 34 0;
#X connect 41 0 79 0;
#X connect 42 0 62 0;
#X connect 42 0 64 0;
#X connect 42 0 66 0;
#X connect 42 0 67 0;
#X connect 43 0 46 0;
#X connect 43 0 47 0;
#X connect 43 0 48 0;
#X connect 43 0 49 0;
#X connect 44 0 32 0;
#X connect 44 1 43 0;
#X connect 44 2 41 1;
#X connect 44 3 78 0;
#X connect 45 0 28 0;
#X connect 45 1 44 0;
#X connect 54 0 35 0;
#X connect 54 0 55 0;
#X connect 57 0 56 0;
#X connect 57 0 75 0;
#X connect 59 0 40 0;
#X connect 59 0 60 0;
#X connect 61 0 58 0;
#X connect 61 0 76 0;
#X connect 62 0 63 0;
#X connect 64 0 65 0;
#X connect 66 0 77 0;
#X connect 67 0 68 0;
#X connect 69 0 70 1;
#X connect 70 0 45 0;
#X connect 71 0 73 0;
#X connect 72 0 69 0;
#X connect 73 0 72 0;
#X connect 73 1 74 0;
#X connect 73 2 69 0;
#X connect 74 0 31 0;
#X connect 79 0 80 0;
#X connect 79 0 82 0;
#X connect 79 1 42 0;
#X connect 80 0 83 0;
#X connect 82 0 81 0;
#X connect 83 0 81 0;
#X connect 84 0 80 0;
#X connect 84 0 82 0;
#X connect 84 1 16 0;
#X restore 889 194 pd resize;
#X floatatom 312 331 5 0 0 1 samples - ir_resize;
#X text 281 312 resize;
#X obj 288 332 bng 15 250 50 0 load_size c10 empty 17 7 0 10 -262144
-1 -1;
#X msg 1426 197 bang;
#X obj 1426 244 s play_sound;
#X obj 1426 218 del 10;
#X obj 699 173 loadbang;
#X msg 699 194 0;
#X obj 336 360 loadbang;
#N canvas -8 2 1916 964 NGIMU 0;
#X text 493 126 configure send rates in Hz;
#X floatatom 178 232 5 0 0 0 - - -;
#X msg 178 121 send /rate/euler 50 \, send /rate/quaternion 0 \, send
/rate/humidity 0;
#X obj 175 615 unpack 0 0 0;
#X floatatom 175 642 5 0 0 3 x - -;
#X floatatom 209 642 5 0 0 3 y - -;
#X floatatom 244 642 5 0 0 3 z - -;
#X obj 329 614 unpack 0 0 0 0 0 0 0 0 0 0;
#X floatatom 329 642 5 0 0 3 x - -;
#X floatatom 363 642 5 0 0 3 y - -;
#X floatatom 398 642 5 0 0 3 z - -;
#X floatatom 437 642 5 0 0 3 x - -;
#X floatatom 473 642 5 0 0 3 y - -;
#X floatatom 507 642 5 0 0 3 z - -;
#X floatatom 547 642 5 0 0 3 x - -;
#X floatatom 581 642 5 0 0 3 y - -;
#X floatatom 616 642 5 0 0 3 z - -;
#X floatatom 656 642 5 0 0 0 - - -;
#X text 171 670 Euler angles;
#X text 327 671 Gyroscope;
#X text 437 672 Accelerometer;
#X text 544 672 Magnetometer;
#X text 654 662 Barometer;
#X obj 356 502 vsl 15 64 0 100 0 0 empty empty battery 0 -9 1 10 -262144
-1 -1 0 1;
#X floatatom 446 471 5 0 0 3 temp - -;
#X obj 537 472 bng 15 250 50 0 empty empty empty 17 7 0 10 -262144
-1 -1;
#X msg 198 98 send /wifi/send/ip 192.168.1.2;
#X msg 217 75 connect 255.255.255.255 9000;
#X obj 356 471 unpack 0;
#X obj 850 542 unpack 0 0 0 0;
#X obj 850 592 expr 2 * ($f1 * $f2 + $f3 * $f4);
#X obj 904 675 expr 1- 2 * ($f1 + $f2);
#X obj 904 636 pow 2;
#X obj 953 636 pow 2;
#X obj 787 713 expr atan($f1 / $f2);
#X obj 787 734 expr $f1 * 180/(atan(1)*4);
#X floatatom 787 760 5 0 0 0 yaw_[-pi/2_pi/2] - -;
#X msg 186 339 listen 8000;
#X msg 178 358 listen 8001;
#X msg 194 317 listen 0;
#X msg 205 184 disconnect;
#X obj 178 209 netsend -u;
#X obj 175 407 oscparse;
#X obj 175 379 netreceive -u -b 8001;
#X obj 175 428 route list;
#X obj 175 449 route euler sensors battery temperature button quaternion
, f 91;
#X obj 849 783 expr atan2($f1 \, $f2);
#X obj 849 805 expr $f1 * 180/(atan(1)*4);
#X obj 178 32 r NGIMU_connect;
#X obj 205 156 r NGIMU_disonnect;
#X obj 178 53 t b b b;
#X obj 849 870 +;
#X obj 877 834 r NGIMU_calibration;
#X obj 182 1064 spigot;
#X obj 217 1047 tgl 15 0 empty empty empty 17 7 0 10 -262144 -1 -1
0 1;
#X obj 217 996 r NGIMU_connect;
#X msg 217 1018 1;
#X msg 324 1015 0;
#X obj 324 995 r NGIMU_disconnect;
#X obj 182 879 expr if($f1 < -180 \, $f1+360 \, $f1);
#X obj 182 858 expr if($f1 >= 180 \, $f1-360 \, $f1);
#X obj 259 779 spigot;
#X obj 304 754 tgl 15 0 empty empty empty 17 7 0 10 -262144 -1 -1 0
1;
#X obj 304 701 r calibrate;
#X floatatom 259 800 5 0 0 0 - - -;
#X floatatom 182 1106 5 0 0 0 - - NGIMU_deg;
#X obj 304 722 del 100;
#X obj 182 837 -, f 4;
#X obj 353 904 r NGIMU_upper_lim;
#X obj 353 946 r NGIMU_lower_lim;
#X obj 182 925 expr if($f1 > $f2 \, $f2 \, $f1 );
#X obj 182 968 expr if($f1 < $f2 \, $f2 \, $f1 );
#X obj 483 888 loadbang;
#X msg 483 909 45;
#X msg 482 952 -45;
#X obj 182 900 * -1;
#X obj 549 888 r ResetHT;
#X obj 482 973 s NGIMU_lower;
#X obj 484 930 s NGIMU_upper;
#X text 832 48 conncection with the IMU sensor;
#X text 833 63 https://x-io.co.uk/ngimu/;
#X connect 2 0 41 0;
#X connect 3 0 4 0;
#X connect 3 1 5 0;
#X connect 3 2 6 0;
#X connect 6 0 61 0;
#X connect 6 0 67 0;
#X connect 7 0 8 0;
#X connect 7 1 9 0;
#X connect 7 2 10 0;
#X connect 7 3 11 0;
#X connect 7 4 12 0;
#X connect 7 5 13 0;
#X connect 7 6 14 0;
#X connect 7 7 15 0;
#X connect 7 8 16 0;
#X connect 7 9 17 0;
#X connect 26 0 41 0;
#X connect 27 0 41 0;
#X connect 28 0 23 0;
#X connect 29 0 30 0;
#X connect 29 1 30 2;
#X connect 29 2 30 3;
#X connect 29 2 32 0;
#X connect 29 3 30 1;
#X connect 29 3 33 0;
#X connect 30 0 34 0;
#X connect 30 0 46 0;
#X connect 31 0 34 1;
#X connect 31 0 46 1;
#X connect 32 0 31 0;
#X connect 33 0 31 1;
#X connect 34 0 35 0;
#X connect 35 0 36 0;
#X connect 37 0 43 0;
#X connect 38 0 43 0;
#X connect 39 0 43 0;
#X connect 40 0 41 0;
#X connect 40 0 39 0;
#X connect 41 0 1 0;
#X connect 42 0 44 0;
#X connect 43 0 42 0;
#X connect 44 0 45 0;
#X connect 45 0 3 0;
#X connect 45 1 7 0;
#X connect 45 2 28 0;
#X connect 45 3 24 0;
#X connect 45 4 25 0;
#X connect 45 5 29 0;
#X connect 46 0 47 0;
#X connect 47 0 51 0;
#X connect 48 0 50 0;
#X connect 49 0 40 0;
#X connect 50 0 2 0;
#X connect 50 0 38 0;
#X connect 50 1 26 0;
#X connect 50 2 27 0;
#X connect 52 0 51 1;
#X connect 53 0 65 0;
#X connect 54 0 53 1;
#X connect 55 0 56 0;
#X connect 56 0 54 0;
#X connect 57 0 54 0;
#X connect 58 0 57 0;
#X connect 59 0 75 0;
#X connect 60 0 59 0;
#X connect 61 0 64 0;
#X connect 62 0 61 1;
#X connect 63 0 62 0;
#X connect 63 0 66 0;
#X connect 64 0 67 1;
#X connect 66 0 62 0;
#X connect 67 0 60 0;
#X connect 68 0 70 1;
#X connect 69 0 71 1;
#X connect 70 0 71 0;
#X connect 71 0 53 0;
#X connect 72 0 73 0;
#X connect 72 0 74 0;
#X connect 73 0 70 1;
#X connect 73 0 78 0;
#X connect 74 0 71 1;
#X connect 74 0 77 0;
#X connect 75 0 70 0;
#X connect 76 0 73 0;
#X connect 76 0 74 0;
#X restore 888 217 pd NGIMU;
#X text 428 156 NGIMU;
#X obj 428 178 bng 15 250 50 0 NGIMU_connect empty connect 17 7 0 10
-191407 -1 -1;
#X obj 428 197 bng 15 250 50 0 NGIMU_disconnect ResetHT disconnect
17 7 0 10 -191407 -1 -1;
#X floatatom 524 174 5 0 0 2 min NGIMU_lower NGIMU_lower_lim;
#X floatatom 561 174 5 0 0 2 max NGIMU_upper NGIMU_upper_lim;
#X msg 699 235 -45;
#X msg 700 214 45;
#X floatatom 598 174 5 0 0 1 deg NGIMU_deg -;
#X obj 926 908 + 360;
#X obj 894 947 + 30;
#X obj 951 944 - 30;
#X floatatom 951 986 5 0 0 0 - - -;
#X obj 894 1010 s degL;
#X obj 951 1006 s degR;
#X obj 926 887 i;
#X obj 894 969 mod 360;
#X obj 951 966 mod 360;
#X floatatom 894 991 5 0 0 0 - - -;
#X obj 926 797 r NGIMU_deg;
#X obj 926 862 spigot;
#X obj 959 840 tgl 15 0 empty empty empty 17 7 0 10 -262144 -1 -1 0
1;
#X obj 767 790 r HT_deg;
#X obj 800 833 tgl 15 0 empty empty empty 17 7 0 10 -262144 -1 -1 0
1;
#X obj 767 855 spigot;
#X obj 621 9 loadbang;
#X obj 560 51 bng 15 250 50 0 HT_manu cHT2 empty 17 7 0 10 -208050
-1 -1;
#X obj 578 51 bng 15 250 50 0 HT_sensor cHT3 empty 17 7 0 10 -208050
-1 -1;
#X obj 542 51 bng 15 250 50 0 HT_auto cHT1 empty 17 7 0 10 -208050
-1 -1;
#X text 544 67 a;
#X text 562 67 m;
#X text 580 67 s;
#X obj 524 197 bng 15 250 50 0 calibrate empty calibrate 17 7 0 10
-262144 -1 -1;
#X obj 177 191 bng 15 250 50 0 dry c_dry dry 17 7 0 10 -105776 -1 -1
;
#X obj 135 191 bng 15 250 50 0 wet c_wet wet 17 7 0 10 -208050 -1 -1
;
#X text 328 266 stereo;
#X text 282 266 mono;
#X obj 288 287 bng 15 250 50 0 deg_0_mono c11 0° 17 7 0 10 -208050
-1 -1;
#X msg 234 420 3;
#X floatatom 234 442 5 0 0 0 - - mono_BRIR;
#X obj 307 882 r mono_BRIR;
#X obj 307 904 f;
#X obj 125 758 pow 0.5;
#X obj 125 736 r stereo_BRIR;
#X obj 237 755 pow 0.5;
#X obj 237 733 r stereo_BRIR;
#X obj 420 749 pow 0.5;
#X obj 420 727 r stereo_BRIR;
#X obj 532 755 pow 0.5;
#X obj 532 733 r stereo_BRIR;
#X obj 420 749 pow 0.5;
#X obj 420 727 r stereo_BRIR;
#X text 95 507 SPATIALIZATION ALGORITHM;
#N canvas -9 -9 1920 976 BRIR_selection 0;
#X obj 38 48 r deg_0;
#X msg 38 69 analyze R0L;
#X obj 38 111 s convolve1;
#X obj 38 90 s convolve3;
#X obj 118 111 s convolve2;
#X obj 118 90 s convolve4;
#X msg 118 69 analyze R0R;
#X obj 329 51 r deg_30;
#X msg 329 229 analyze R_30L;
#X obj 329 250 s convolve1;
#X obj 339 206 s convolve2;
#X msg 339 185 analyze R_30R;
#X msg 362 98 analyze R30R;
#X obj 362 119 s convolve4;
#X msg 352 142 analyze R30L;
#X obj 352 163 s convolve3;
#X text 38 24 default BRIR - stereo 0°;
#X text 326 23 default BRIR - stereo 30°;
#X msg 41 229 analyze R0L;
#X obj 41 271 s convolve1;
#X obj 41 250 s convolve3;
#X obj 121 271 s convolve2;
#X obj 121 250 s convolve4;
#X msg 121 229 analyze R0R;
#X text 41 184 default BRIR - mono 0°;
#X obj 41 208 r deg_0_mono;
#X msg 214 232 0;
#X obj 214 254 s degL;
#X obj 214 273 s degR;
#X connect 0 0 1 0;
#X connect 0 0 6 0;
#X connect 1 0 2 0;
#X connect 1 0 3 0;
#X connect 6 0 4 0;
#X connect 6 0 5 0;
#X connect 7 0 8 0;
#X connect 7 0 14 0;
#X connect 7 0 12 0;
#X connect 7 0 11 0;
#X connect 8 0 9 0;
#X connect 11 0 10 0;
#X connect 12 0 13 0;
#X connect 14 0 15 0;
#X connect 18 0 19 0;
#X connect 18 0 20 0;
#X connect 23 0 21 0;
#X connect 23 0 22 0;
#X connect 25 0 18 0;
#X connect 25 0 23 0;
#X connect 25 0 26 0;
#X connect 26 0 27 0;
#X connect 26 0 28 0;
#X restore 257 506 pd BRIR_selection;
#N canvas 369 299 517 220 select_slider 0;
#X msg 66 71 1;
#X obj 150 51 r HT_auto;
#X msg 150 71 0;
#X msg 233 69 0;
#X obj 233 49 r HT_sensor;
#X obj 66 116 outlet;
#X obj 66 50 r HT_manu;
#X obj 332 48 r ResetHT;
#X msg 332 68 0;
#X connect 0 0 5 0;
#X connect 1 0 2 0;
#X connect 2 0 5 0;
#X connect 3 0 5 0;
#X connect 4 0 3 0;
#X connect 6 0 0 0;
#X connect 7 0 8 0;
#X connect 8 0 5 0;
#X restore 800 812 pd select_slider;
#N canvas 369 299 517 220 select_sensor 0;
#X obj 150 51 r HT_auto;
#X msg 150 71 0;
#X obj 233 49 r HT_sensor;
#X obj 66 116 outlet;
#X obj 66 50 r HT_manu;
#X msg 66 71 0;
#X msg 233 69 1;
#X obj 332 48 r ResetHT;
#X msg 332 68 0;
#X connect 0 0 1 0;
#X connect 1 0 3 0;
#X connect 2 0 6 0;
#X connect 4 0 5 0;
#X connect 5 0 3 0;
#X connect 6 0 3 0;
#X connect 7 0 8 0;
#X connect 8 0 3 0;
#X restore 959 820 pd select_sensor;
#X text 923 770 sensor;
#X obj 1240 660 tgl 15 0 empty empty empty 17 7 0 10 -262144 -1 -1
0 1;
#X obj 1207 682 spigot;
#N canvas 369 299 517 220 select_auto 0;
#X obj 150 51 r HT_auto;
#X msg 233 69 0;
#X obj 233 49 r HT_sensor;
#X obj 66 116 outlet;
#X obj 66 50 r HT_manu;
#X msg 66 71 0;
#X msg 150 71 1;
#X obj 332 48 r ResetHT;
#X msg 332 68 0;
#X connect 0 0 6 0;
#X connect 1 0 3 0;
#X connect 2 0 1 0;
#X connect 4 0 5 0;
#X connect 5 0 3 0;
#X connect 6 0 3 0;
#X connect 7 0 8 0;
#X connect 8 0 3 0;
#X restore 1240 639 pd select_auto;
#X floatatom 839 337 5 0 0 0 - #0-wet-volume -;
#X obj 702 337 hsl 128 15 0 100 0 0 \$0-wet-volume \$0-wet-volume-set
wet-volume 8 8 0 12 -228856 -1 -1 0 1;
#X floatatom 839 318 5 0 0 0 - #0-dry-volume -;
#X obj 702 318 hsl 128 15 0 100 0 0 \$0-dry-volume \$0-dry-volume-set
dry-volume 8 8 0 12 -228856 -1 -1 12700 1;
#X obj 417 931 expr~ if($f2 >= 3 \, $v1/sqrt(2) \, $v1);
#X obj 109 777 /~;
#X obj 221 774 /~;
#X obj 405 772 /~;
#X obj 516 774 /~;
#X msg 288 413 1;
#X msg 1207 852 195 \, 105 10000;
#X msg 1307 852 105 \, 195 10000;
#X msg 1497 852 255 \, 165 10000;
#X msg 1598 852 165 \, 255 10000;
#X obj 94 931 expr~ if($f2 >= 3 \, $v1/sqrt(2) \, $v1);
#X text 764 507 HEAD TRACKER;
#X text 437 50 head tracking;
#X obj 198 981 expr~ $v1 / sqrt(2);
#X obj 416 960 expr~ $v1 / sqrt(2);
#N canvas 0 22 450 300 (subpatch) 0;
#X array audioR 810000 float 0;
#X coords 0 1 809999 -1 100 60 1 0 0;
#X restore 1735 277 graph;
#X floatatom 1645 180 5 0 0 0 nb_channel - -;
#X obj 1591 159 unpack f f f f;
#X obj 135 390 loadbang;
#X msg 1534 73 read -resize \$1 audioL audioR;
#X obj 1645 200 - 1;
#X obj 1645 224 tgl 15 0 nb_channels empty empty 17 7 0 10 -262144
-1 -1 0 1;
#X obj 109 587 r~ audioL;
#X obj 222 615 r~ audioR;
#X obj 405 579 r~ audioL;
#X obj 516 623 r~ audioR;
#X obj 93 971 r~ audioL;
#X obj 312 1019 r~ audioR;
#N canvas 522 98 281 205 check_stereo 0;
#X obj 35 43 inlet~;
#X obj 37 134 outlet~;
#X obj 36 108 *~;
#X obj 51 64 r nb_channels;
#X obj 51 85 expr if($f1 >= 1 \, 0 \, 1);
#X connect 0 0 2 0;
#X connect 2 0 1 0;
#X connect 3 0 4 0;
#X connect 4 0 2 1;
#X restore 117 608 pd check_stereo;
#N canvas 522 98 281 186 check_stereo 0;
#X obj 35 43 inlet~;
#X obj 37 134 outlet~;
#X obj 36 108 *~;
#X obj 51 64 r nb_channels;
#X obj 51 85 expr if($f1 >= 1 \, 0 \, 1);
#X connect 0 0 2 0;
#X connect 2 0 1 0;
#X connect 3 0 4 0;
#X connect 4 0 2 1;
#X restore 413 601 pd check_stereo;
#N canvas 0 50 395 327 earplug 0;
#X obj 37 78 earplug~ 330 0, f 19;
#X obj 92 38 r degR;
#X floatatom 96 59 5 0 0 0 - - -;
#X obj 37 58 r~ audioL;
#X obj 171 79 earplug~ 330 0, f 19;
#X obj 226 39 r degR;
#X floatatom 230 60 5 0 0 0 - - -;
#X obj 171 59 r~ audioR;
#N canvas 522 98 281 205 check_stereo 0;
#X obj 35 43 inlet~;
#X obj 37 134 outlet~;
#X obj 36 108 *~;
#X obj 51 64 r nb_channels;
#X obj 51 85 expr if($f1 >= 1 \, 0 \, 1);
#X connect 0 0 2 0;
#X connect 2 0 1 0;
#X connect 3 0 4 0;
#X connect 4 0 2 1;
#X restore 148 122 pd check_stereo;
#X obj 40 212 outlet~;
#X obj 174 211 outlet~;
#X connect 0 0 9 0;
#X connect 0 1 8 0;
#X connect 1 0 0 1;
#X connect 1 0 2 0;
#X connect 3 0 0 0;
#X connect 4 1 10 0;
#X connect 5 0 4 1;
#X connect 5 0 6 0;
#X connect 7 0 4 0;
#X connect 8 0 10 0;
#X restore 389 539 pd earplug R;
#X f 19;
#N canvas 931 334 774 645 earplug 0;
#X obj 40 212 outlet~;
#X obj 39 58 earplug~ 30 0, f 19;
#X obj 94 18 r degL;
#X floatatom 98 39 5 0 0 0 - - -;
#X obj 39 38 r~ audioL;
#X obj 173 59 earplug~ 30 0, f 19;
#X obj 228 19 r degL;
#X floatatom 232 40 5 0 0 0 - - -;
#X obj 173 39 r~ audioR;
#N canvas 522 98 281 205 check_stereo 0;
#X obj 35 43 inlet~;
#X obj 37 134 outlet~;
#X obj 36 108 *~;
#X obj 51 64 r nb_channels;
#X obj 51 85 expr if($f1 >= 1 \, 0 \, 1);
#X connect 0 0 2 0;
#X connect 2 0 1 0;
#X connect 3 0 4 0;
#X connect 4 0 2 1;
#X restore 151 109 pd check_stereo;
#X obj 174 211 outlet~;
#X connect 1 0 0 0;
#X connect 1 1 9 0;
#X connect 2 0 1 1;
#X connect 2 0 3 0;
#X connect 4 0 1 0;
#X connect 5 1 10 0;
#X connect 6 0 5 1;
#X connect 6 0 7 0;
#X connect 8 0 5 0;
#X connect 9 0 10 0;
#X restore 95 542 pd earplug L;
#X f 19;
#X text 889 3 utilities;
#X msg 1542 110 read -resize ./data/audio/voice.wav audioL audioR;
#N canvas -9 -9 1920 976 README 0;
#X text 34 30 This patch is part of the semester project "Design of
an Externalized Music Player", f 45;
#X text 33 60 EPFL - Ecole Polytechnique Fédérale de Lausanne Gloria
Dal Santo - SCIPER: 320734, f 47;
#X text 32 109 This implementation requires the following librariy:
;
#X text 32 140 iemlib;
#X text 32 163 INSTALLATION download the externals from the Deken:
1) go to Help -> Find Externals -> search for the libraries 2) in File
-> Preferencies -> Startup -> New and add the librieries writing typing
their name (in this case you will have one new entry \, "iemlib") 3)
in File -> Preferencies -> Path add the path to the forlder of each
library, f 51;
#X text 33 84 gloria.dalsanto@epfl.ch;
#X restore 889 27 pd README;
#N canvas 522 98 281 167 check_stereo 0;
#X obj 35 43 inlet~;
#X obj 37 134 outlet~;
#X obj 36 108 *~;
#X obj 51 64 r nb_channels;
#X obj 51 85 expr if($f1 >= 1 \, 0 \, 1);
#X connect 0 0 2 0;
#X connect 2 0 1 0;
#X connect 3 0 4 0;
#X connect 4 0 2 1;
#X restore 105 1000 pd check_stereo;
#X connect 0 0 132 0;
#X connect 0 1 273 0;
#X connect 2 0 275 0;
#X connect 2 0 9 0;
#X connect 3 0 2 0;
#X connect 4 0 289 0;
#X connect 4 0 177 0;
#X connect 6 0 5 0;
#X connect 7 0 5 0;
#X connect 8 0 5 0;
#X connect 9 1 10 0;
#X connect 10 0 16 0;
#X connect 18 0 1 0;
#X connect 18 0 5 0;
#X connect 19 0 1 1;
#X connect 19 0 5 1;
#X connect 20 0 22 0;
#X connect 21 0 23 0;
#X connect 22 0 21 0;
#X connect 23 0 21 1;
#X connect 23 0 25 0;
#X connect 25 0 26 0;
#X connect 25 0 24 0;
#X connect 26 0 34 0;
#X connect 26 1 35 0;
#X connect 39 0 264 0;
#X connect 39 0 40 0;
#X connect 39 0 41 0;
#X connect 40 0 265 0;
#X connect 41 0 39 0;
#X connect 42 0 43 0;
#X connect 43 0 96 0;
#X connect 43 0 99 0;
#X connect 44 0 180 0;
#X connect 45 0 42 0;
#X connect 45 0 41 0;
#X connect 45 0 40 0;
#X connect 46 0 45 0;
#X connect 47 0 49 1;
#X connect 48 0 50 1;
#X connect 49 0 266 0;
#X connect 50 0 256 0;
#X connect 51 0 50 0;
#X connect 52 0 250 0;
#X connect 53 0 262 0;
#X connect 53 0 54 0;
#X connect 53 0 55 0;
#X connect 54 0 263 0;
#X connect 55 0 53 0;
#X connect 56 0 57 0;
#X connect 57 0 97 0;
#X connect 58 0 56 0;
#X connect 58 0 55 0;
#X connect 58 0 54 0;
#X connect 59 0 58 0;
#X connect 60 0 34 0;
#X connect 63 0 64 0;
#X connect 65 0 66 0;
#X connect 67 0 259 0;
#X connect 68 0 258 0;
#X connect 73 0 67 0;
#X connect 74 0 68 0;
#X connect 75 0 260 0;
#X connect 76 0 75 0;
#X connect 77 0 49 0;
#X connect 78 0 257 0;
#X connect 79 0 78 0;
#X connect 81 0 178 0;
#X connect 83 0 84 0;
#X connect 84 0 85 0;
#X connect 84 0 86 0;
#X connect 85 0 91 0;
#X connect 86 0 92 0;
#X connect 87 0 89 0;
#X connect 90 0 83 0;
#X connect 91 0 93 0;
#X connect 92 0 87 0;
#X connect 93 0 88 0;
#X connect 96 0 94 0;
#X connect 97 0 95 0;
#X connect 99 0 103 0;
#X connect 100 0 102 0;
#X connect 101 0 100 0;
#X connect 101 0 63 0;
#X connect 101 0 65 0;
#X connect 101 0 129 0;
#X connect 103 0 98 0;
#X connect 109 0 110 0;
#X connect 109 0 111 0;
#X connect 109 0 114 0;
#X connect 109 0 115 0;
#X connect 110 0 112 0;
#X connect 111 0 113 0;
#X connect 115 0 116 0;
#X connect 115 0 117 0;
#X connect 118 0 167 0;
#X connect 119 0 168 0;
#X connect 120 0 76 0;
#X connect 121 0 73 0;
#X connect 122 0 74 0;
#X connect 123 0 79 0;
#X connect 124 0 78 1;
#X connect 125 0 67 1;
#X connect 126 0 68 1;
#X connect 127 0 75 1;
#X connect 129 0 130 0;
#X connect 135 0 142 0;
#X connect 135 1 143 0;
#X connect 167 0 128 0;
#X connect 167 0 231 0;
#X connect 168 0 128 0;
#X connect 168 0 231 0;
#X connect 171 0 133 0;
#X connect 172 0 133 1;
#X connect 173 0 133 2;
#X connect 174 0 133 3;
#X connect 177 0 10 0;
#X connect 178 0 179 0;
#X connect 180 0 181 0;
#X connect 186 0 188 0;
#X connect 188 0 187 0;
#X connect 189 0 190 0;
#X connect 189 0 198 0;
#X connect 189 0 199 0;
#X connect 190 0 80 0;
#X connect 191 0 134 0;
#X connect 191 0 119 0;
#X connect 201 0 202 0;
#X connect 201 0 203 0;
#X connect 202 0 208 0;
#X connect 203 0 209 0;
#X connect 204 0 206 0;
#X connect 207 0 201 0;
#X connect 208 0 210 0;
#X connect 209 0 204 0;
#X connect 210 0 205 0;
#X connect 211 0 212 0;
#X connect 212 0 207 0;
#X connect 213 0 212 1;
#X connect 214 0 216 0;
#X connect 215 0 216 1;
#X connect 216 0 90 0;
#X connect 217 0 156 0;
#X connect 217 0 106 0;
#X connect 217 0 195 0;
#X connect 218 0 156 0;
#X connect 219 0 156 0;
#X connect 229 0 230 0;
#X connect 229 0 261 0;
#X connect 230 0 231 0;
#X connect 232 0 233 0;
#X connect 233 0 256 1;
#X connect 233 0 266 1;
#X connect 234 0 257 1;
#X connect 235 0 234 0;
#X connect 236 0 258 1;
#X connect 237 0 236 0;
#X connect 238 0 259 1;
#X connect 239 0 238 0;
#X connect 240 0 260 1;
#X connect 241 0 240 0;
#X connect 243 0 242 0;
#X connect 246 0 215 0;
#X connect 247 0 213 0;
#X connect 249 0 250 1;
#X connect 250 0 53 0;
#X connect 250 0 39 0;
#X connect 251 0 249 0;
#X connect 256 0 270 0;
#X connect 257 0 77 1;
#X connect 258 0 51 1;
#X connect 259 0 47 1;
#X connect 260 0 48 1;
#X connect 261 0 128 0;
#X connect 262 0 56 0;
#X connect 263 0 56 0;
#X connect 264 0 42 0;
#X connect 265 0 42 0;
#X connect 266 0 269 0;
#X connect 269 0 18 1;
#X connect 270 0 19 1;
#X connect 272 0 276 0;
#X connect 273 2 272 0;
#X connect 274 0 226 0;
#X connect 275 0 0 0;
#X connect 275 0 186 0;
#X connect 276 0 277 0;
#X connect 278 0 79 0;
#X connect 278 0 284 0;
#X connect 279 0 74 0;
#X connect 280 0 73 0;
#X connect 280 0 285 0;
#X connect 281 0 76 0;
#X connect 282 0 18 0;
#X connect 282 0 291 0;
#X connect 283 0 19 0;
#X connect 284 0 74 0;
#X connect 285 0 76 0;
#X connect 286 0 47 0;
#X connect 286 1 48 0;
#X connect 287 0 77 0;
#X connect 287 1 51 0;
#X connect 289 0 0 0;
#X connect 291 0 19 0;
#X coords 0 -1 1 1 650 330 1 30 30;
#X restore 33 25 pd music player;
#X coords 0 374 1 373 400 300 0;
